#!OML:ASF Y:\EmotionMaleHayes\Project 1\Capture day 1\Session 1\Male1.ASF
:FULLY-SPECIFIED
:DEGREES
507
root -4.4721 16.5659 -16.4909 404.134 63.6536 408.038
lowerback 4.77528 -1.91953 -18.7958
upperback 1.52914 -3.30258 -2.76551
thorax -0.13086 -1.65333 7.65486
lowerneck -21.8474 -0.683565 1.56922
upperneck 23.883 -2.42955 3.67888
head 11.4497 -0.404764 0.71625
rclavicle 3.47873e-015 6.75868e-014
rhumerus -55.0518 -7.84894 -72.121
rradius 30.8657
rwrist 0.790939
rhand -9.7431 -33.7672
rfingers 7.12502
rthumb 16.231 -63.1077
lclavicle 3.47873e-015 6.75868e-014
lhumerus -7.01427 -22.7637 78.9559
lradius 45.8604
lwrist 0.812441
lhand -19.2236 -24.623
lfingers 7.12502
lthumb 7.0893 5.23823
rfemur -22.4398 -17.3915 4.4929
rtibia 3.20483
rfoot -18.7227 -15.5342
rtoes 24.9381
lfemur 18.6859 7.809 -37.8321
ltibia 5.81979
lfoot -19.057 7.1981
ltoes -25.5332
508
root -4.35181 16.5508 -16.4449 404.287 63.3543 408.059
lowerback 4.72628 -1.98024 -18.9052
upperback 1.38688 -3.39744 -2.73399
thorax -0.224706 -1.685 7.75134
lowerneck -21.7971 -0.457992 1.69654
upperneck 23.6411 -2.14745 3.67887
head 11.3436 -0.273871 0.737861
rclavicle 1.95803e-014 -5.56597e-014
rhumerus -55.3074 -8.09604 -71.7638
rradius 30.8054
rwrist 1.16498
rhand -8.47855 -34.0893
rfingers 7.12502
rthumb 17.4483 -63.3262
lclavicle 1.95803e-014 -5.56597e-014
lhumerus -7.28453 -23.0041 79.3657
lradius 45.9043
lwrist 0.5408
lhand -19.1171 -24.9144
lfingers 7.12502
lthumb 7.1921 4.94336
rfemur -22.7876 -17.824 4.39419
rtibia 3.62787
rfoot -18.9045 -15.3962
rtoes 25.7066
lfemur 18.7933 7.53271 -38.1814
ltibia 6.09174
lfoot -19.3003 7.23261
ltoes -24.7875
509
root -4.23401 16.5359 -16.3977 403.95 63.1891 407.544
lowerback 4.70276 -2.03897 -18.8562
upperback 1.27166 -3.48915 -2.56707
thorax -0.305819 -1.72085 7.90978
lowerneck -21.8656 -0.186092 1.83025
upperneck 23.3805 -1.78779 3.60363
head 11.2517 -0.117277 0.742497
rclavicle -1.81888e-014 -5.56597e-014
rhumerus -55.4528 -8.24862 -71.4294
rradius 30.7524
rwrist 1.69129
rhand -7.92129 -33.7363
rfingers 7.12502
rthumb 17.9846 -62.9248
lclavicle -1.81888e-014 -5.56597e-014
lhumerus -7.59305 -23.0721 79.8356
lradius 46.0295
lwrist 0.381987
lhand -18.7092 -25.2553
lfingers 7.12502
lthumb 7.58587 4.58866
rfemur -23.2207 -18.011 4.63968
rtibia 4.42464
rfoot -19.0908 -15.4593
rtoes 26.136
lfemur 18.9289 7.22892 -38.2207
ltibia 6.30412
lfoot -19.3111 7.26645
ltoes -23.8986
510
root -4.11401 16.5213 -16.3479 403.568 63.1061 406.977
lowerback 4.66271 -2.08122 -18.6973
upperback 1.1923 -3.54567 -2.39145
thorax -0.354116 -1.74447 8.01582
lowerneck -22.0325 0.049093 1.99069
upperneck 23.1864 -1.47126 3.43559
head 11.2037 0.0127599 0.702614
rclavicle 4.57205e-014 -3.26007e-014
rhumerus -55.607 -8.13503 -71.5418
rradius 30.9615
rwrist 1.36556
rhand -8.74718 -33.7611
rfingers 7.12502
rthumb 17.1898 -63.0208
lclavicle 4.57205e-014 -3.26007e-014
lhumerus -7.85731 -23.3081 80.3228
lradius 46.1444
lwrist 0.362282
lhand -18.2432 -25.3155
lfingers 7.12502
lthumb 8.0356 4.51169
rfemur -23.6671 -18.1672 5.06483
rtibia 5.34469
rfoot -18.6511 -16.0968
rtoes 23.1469
lfemur 19.0552 6.96343 -38.121
ltibia 6.74309
lfoot -19.3856 7.33109
ltoes -24.5157
511
root -3.98845 16.5052 -16.2884 403.114 63.0494 406.374
lowerback 4.5495 -2.1229 -18.516
upperback 1.15257 -3.57785 -2.23493
thorax -0.326663 -1.76451 8.08314
lowerneck -22.1617 0.240932 2.25294
upperneck 23.0094 -1.23584 3.21299
head 11.1562 0.108715 0.613329
rclavicle -8.80616e-014 -9.30312e-014
rhumerus -55.7316 -7.98665 -71.7722
rradius 31.219
rwrist 0.909438
rhand -9.46429 -33.9133
rfingers 7.12502
rthumb 16.4995 -63.2317
lclavicle -8.80616e-014 -9.30312e-014
lhumerus -8.15857 -23.6654 80.7354
lradius 46.2484
lwrist 0.354881
lhand -17.8307 -25.2779
lfingers 7.12502
lthumb 8.4337 4.53375
rfemur -24.1266 -18.7491 5.73767
rtibia 6.28202
rfoot -17.0695 -17.0805
rtoes 14.339
lfemur 19.2631 6.74419 -37.9039
ltibia 7.16827
lfoot -19.698 7.19954
ltoes -23.8453
512
root -3.85691 16.4882 -16.2215 402.171 62.9731 405.38
lowerback 4.41125 -2.12449 -18.2452
upperback 1.19437 -3.53847 -2.04764
thorax -0.219331 -1.76144 8.13006
lowerneck -22.3101 0.436044 2.5904
upperneck 22.8458 -0.997202 2.88771
head 11.1175 0.199608 0.475024
rclavicle -9.0447e-015 -1.03368e-014
rhumerus -55.775 -8.01459 -71.7968
rradius 31.3431
rwrist 0.906721
rhand -9.29554 -33.3473
rfingers 7.12502
rthumb 16.6619 -62.6522
lclavicle -9.0447e-015 -1.03368e-014
lhumerus -8.48059 -23.9323 81.1407
lradius 46.341
lwrist 0.304475
lhand -17.3792 -25.3254
lfingers 7.12502
lthumb 8.86939 4.46819
rfemur -23.9424 -17.7729 5.87684
rtibia 7.11237
rfoot -17.8612 -17.7674
rtoes 17.0966
lfemur 19.7133 6.62329 -37.5228
ltibia 7.33259
lfoot -19.8371 7.09478
ltoes -22.6832
513
root -3.72991 16.4825 -16.1614 401.567 63.015 404.954
lowerback 4.61295 -2.18557 -18.0157
upperback 1.26983 -3.64843 -1.89134
thorax -0.226068 -1.82306 8.18403
lowerneck -22.3844 0.688211 2.67488
upperneck 22.5931 -0.656508 2.82544
head 11.0353 0.34597 0.490177
rclavicle -1.54058e-014 -3.97569e-015
rhumerus -55.7613 -7.87547 -71.9414
rradius 31.5376
rwrist 0.760049
rhand -8.66814 -32.819
rfingers 7.12502
rthumb 17.2659 -62.072
lclavicle -1.54058e-014 -3.97569e-015
lhumerus -8.99227 -24.0378 81.632
lradius 46.5557
lwrist 0.148764
lhand -17.0541 -25.2963
lfingers 7.12502
lthumb 9.1831 4.4837
rfemur -23.5834 -17.7096 5.9322
rtibia 8.03348
rfoot -18.5835 -18.0032
rtoes 20.8646
lfemur 20.2902 6.11724 -37.4486
ltibia 7.56355
lfoot -19.6452 7.78303
ltoes -25.2244
514
root -3.6054 16.4735 -16.1023 401.514 62.7789 404.908
lowerback 4.62254 -2.26538 -17.977
upperback 1.27703 -3.75378 -1.90018
thorax -0.198134 -1.87802 8.15437
lowerneck -22.569 0.946282 2.66171
upperneck 22.4012 -0.348768 3.01916
head 10.999 0.505135 0.610872
rclavicle -2.21645e-014 -3.18055e-014
rhumerus -55.706 -7.76605 -72.2718
rradius 31.7905
rwrist 0.665574
rhand -8.16612 -33.0141
rfingers 7.12502
rthumb 17.749 -62.2241
lclavicle -2.21645e-014 -3.18055e-014
lhumerus -9.5285 -24.3544 81.9954
lradius 46.6992
lwrist -0.0229584
lhand -17.1389 -25.1067
lfingers 7.12502
lthumb 9.10131 4.67691
rfemur -23.7124 -18.6318 6.08611
rtibia 9.11049
rfoot -18.6032 -17.7677
rtoes 23.9803
lfemur 20.5038 6.00692 -37.604
ltibia 8.06724
lfoot -19.5391 8.24783
ltoes -28.4005
515
root -3.47488 16.4571 -16.0309 400.634 62.4484 403.751
lowerback 4.33683 -2.22772 -17.5495
upperback 1.18886 -3.63933 -1.92974
thorax -0.195038 -1.81701 7.87585
lowerneck -22.932 1.06301 2.85828
upperneck 22.4249 -0.299437 3.11045
head 11.0777 0.559286 0.622563
rclavicle -3.60794e-014 2.3059e-014
rhumerus -55.8036 -8.10114 -72.4607
rradius 31.9
rwrist 0.916007
rhand -7.8957 -33.2421
rfingers 7.12502
rthumb 18.0092 -62.4283
lclavicle -3.60794e-014 2.3059e-014
lhumerus -10.0585 -25.0115 82.231
lradius 46.673
lwrist -0.0733823
lhand -17.2513 -24.8696
lfingers 7.12502
lthumb 8.99282 4.91875
rfemur -24.1257 -19.2036 6.91898
rtibia 9.99653
rfoot -18.3125 -17.7699
rtoes 26.7651
lfemur 20.5787 6.18461 -37.2889
ltibia 8.51974
lfoot -19.4604 8.24643
ltoes -29.4127
516
root -3.34282 16.4519 -15.9529 398.969 62.5033 401.928
lowerback 4.30936 -2.18929 -16.7269
upperback 1.09199 -3.56951 -1.79211
thorax -0.348766 -1.76883 7.57692
lowerneck -23.096 1.23482 3.35698
upperneck 22.4668 -0.17179 2.82801
head 11.1247 0.625434 0.459175
rclavicle -4.60187e-014 2.94201e-014
rhumerus -55.9981 -8.4873 -72.4681
rradius 31.9263
rwrist 1.22938
rhand -7.6324 -33.3082
rfingers 7.12502
rthumb 18.2625 -62.4709
lclavicle -4.60187e-014 2.94201e-014
lhumerus -10.7863 -25.4405 82.5947
lradius 46.6409
lwrist -0.169168
lhand -16.8952 -24.7739
lfingers 7.12502
lthumb 9.33645 4.99931
rfemur -23.8729 -19.0847 7.9474
rtibia 10.1358
rfoot -17.8998 -18.3866
rtoes 28.0222
lfemur 20.9459 5.78191 -36.6047
ltibia 8.82504
lfoot -19.4283 8.48375
ltoes -28.4673
517
root -3.21455 16.4495 -15.882 398.158 62.4036 400.966
lowerback 4.24816 -2.22325 -16.3832
upperback 1.03057 -3.60044 -1.64062
thorax -0.385604 -1.78165 7.55092
lowerneck -23.058 1.50386 3.70528
upperneck 22.0895 0.131352 2.6715
head 10.9786 0.761932 0.389098
rclavicle 1.00386e-014 -5.64548e-014
rhumerus -55.9839 -8.57234 -72.4992
rradius 32.0285
rwrist 1.36183
rhand -7.50152 -33.4873
rfingers 7.12502
rthumb 18.3884 -62.6381
lclavicle 1.00386e-014 -5.64548e-014
lhumerus -11.3275 -25.6331 83.074
lradius 46.4691
lwrist -0.251278
lhand -16.3757 -24.7147
lfingers 7.12502
lthumb 9.83767 5.03544
rfemur -23.7993 -19.7701 8.59866
rtibia 10.2806
rfoot -16.8106 -18.2531
rtoes 27.8344
lfemur 21.1177 5.42045 -36.4268
ltibia 9.33756
lfoot -19.4952 8.53643
ltoes -27.099
518
root -3.07803 16.4575 -15.8162 397.082 62.0977 399.879
lowerback 4.19434 -2.17348 -16.0319
upperback 1.0851 -3.50815 -1.49219
thorax -0.332566 -1.74614 7.51202
lowerneck -23.3245 1.74655 4.05571
upperneck 22.0585 0.448659 2.21109
head 11.0192 0.874284 0.216156
rclavicle 1.32192e-014 3.18055e-014
rhumerus -55.7908 -8.49038 -72.5871
rradius 32.0571
rwrist 1.31169
rhand -7.64567 -33.3196
rfingers 7.12502
rthumb 18.2497 -62.4835
lclavicle 1.32192e-014 3.18055e-014
lhumerus -11.7017 -25.7389 83.6333
lradius 46.177
lwrist -0.272644
lhand -15.845 -24.6388
lfingers 7.12502
lthumb 10.3497 5.08653
rfemur -23.6912 -20.8104 9.17997
rtibia 10.6891
rfoot -15.7488 -17.2673
rtoes 28.5064
lfemur 21.4078 5.12922 -36.4803
ltibia 9.88047
lfoot -19.2799 8.96704
ltoes -28.2108
519
root -2.94731 16.4635 -15.7399 395.056 62.164 397.589
lowerback 4.03073 -2.17352 -15.0559
upperback 1.07035 -3.45096 -1.14979
thorax -0.310492 -1.72545 7.33291
lowerneck -23.3286 1.95144 4.29118
upperneck 21.8911 0.748857 1.84183
head 10.9617 0.97679 0.0894527
rclavicle 7.196e-014 1.51076e-014
rhumerus -55.5486 -8.43917 -72.6005
rradius 31.8306
rwrist 1.47948
rhand -7.68007 -32.9925
rfingers 7.12502
rthumb 18.2167 -62.1595
lclavicle 7.196e-014 1.51076e-014
lhumerus -12.4144 -25.6975 84.2617
lradius 45.9818
lwrist -0.440375
lhand -15.3332 -24.7079
lfingers 7.12502
lthumb 10.8434 4.99219
rfemur -23.7553 -21.3325 10.6223
rtibia 11.3107
rfoot -15.1087 -16.4056
rtoes 29.1737
lfemur 21.5557 4.85438 -35.6128
ltibia 10.4754
lfoot -18.7538 9.52554
ltoes -30.1862
520
root -2.81637 16.473 -15.6593 392.858 62.246 395.12
lowerback 3.87817 -2.22524 -14.0457
upperback 1.02956 -3.46831 -0.734788
thorax -0.3016 -1.73963 7.21066
lowerneck -23.1299 2.21789 4.35256
upperneck 21.5706 1.14904 1.71159
head 10.8114 1.1378 0.0911895
rclavicle 6.85807e-015 -1.90833e-014
rhumerus -55.2309 -8.26302 -72.6068
rradius 31.6128
rwrist 1.7334
rhand -7.65721 -32.9122
rfingers 7.12502
rthumb 18.2386 -62.0772
lclavicle 6.85807e-015 -1.90833e-014
lhumerus -13.3667 -25.4447 84.9651
lradius 45.7979
lwrist -0.779146
lhand -14.9832 -24.7905
lfingers 7.12502
lthumb 11.1809 4.89158
rfemur -23.8579 -21.5785 12.1545
rtibia 12.1333
rfoot -14.7089 -15.6779
rtoes 28.4627
lfemur 21.7005 4.65124 -34.5466
ltibia 10.9985
lfoot -18.3233 9.88165
ltoes -29.5122
521
root -2.68211 16.4909 -15.581 391.117 62.052 393.248
lowerback 3.77095 -2.22768 -13.3671
upperback 1.04635 -3.43327 -0.426785
thorax -0.25428 -1.73042 7.1552
lowerneck -23.2822 2.54074 4.59951
upperneck 21.6931 1.59758 1.33267
head 10.8957 1.31461 -0.0125566
rclavicle -3.08116e-015 1.27222e-014
rhumerus -54.8421 -8.04416 -72.6999
rradius 31.5354
rwrist 1.86328
rhand -7.74019 -32.7132
rfingers 7.12502
rthumb 18.1588 -61.8856
lclavicle -3.08116e-015 1.27222e-014
lhumerus -14.2151 -25.3533 85.6447
lradius 45.5375
lwrist -0.943524
lhand -14.7678 -24.6819
lfingers 7.12502
lthumb 11.3887 4.9888
rfemur -23.7245 -21.4199 13.0847
rtibia 12.8096
rfoot -14.6482 -15.2586
rtoes 27.5538
lfemur 21.8671 4.65744 -33.8584
ltibia 11.63
lfoot -17.9365 10.0877
ltoes -28.0753
